<mxfile host="app.diagrams.net" modified="2020-12-20T10:19:33.646Z" agent="5.0 (Windows NT 10.0; Win64; x64) AppleWebKit/537.36 (KHTML, like Gecko) Chrome/87.0.4280.88 Safari/537.36" etag="03XTtm_9My8ErfWLnQ_H" version="14.1.1" type="github">
  <diagram id="C5RBs43oDa-KdzZeNtuy" name="Page-1">
    <mxGraphModel dx="1178" dy="659" grid="1" gridSize="10" guides="1" tooltips="1" connect="1" arrows="1" fold="1" page="1" pageScale="1" pageWidth="827" pageHeight="1169" math="0" shadow="0">
      <root>
        <mxCell id="WIyWlLk6GJQsqaUBKTNV-0" />
        <mxCell id="WIyWlLk6GJQsqaUBKTNV-1" parent="WIyWlLk6GJQsqaUBKTNV-0" />
        <mxCell id="9kbDAZUbSd0TIgW_3yyX-5" value="" style="edgeStyle=orthogonalEdgeStyle;rounded=0;orthogonalLoop=1;jettySize=auto;html=1;" edge="1" parent="WIyWlLk6GJQsqaUBKTNV-1" source="9kbDAZUbSd0TIgW_3yyX-0" target="9kbDAZUbSd0TIgW_3yyX-2">
          <mxGeometry relative="1" as="geometry" />
        </mxCell>
        <mxCell id="9kbDAZUbSd0TIgW_3yyX-0" value="打开H5文件" style="rounded=1;whiteSpace=wrap;html=1;" vertex="1" parent="WIyWlLk6GJQsqaUBKTNV-1">
          <mxGeometry x="105" y="60" width="120" height="30" as="geometry" />
        </mxCell>
        <mxCell id="9kbDAZUbSd0TIgW_3yyX-6" value="" style="edgeStyle=orthogonalEdgeStyle;rounded=0;orthogonalLoop=1;jettySize=auto;html=1;" edge="1" parent="WIyWlLk6GJQsqaUBKTNV-1" source="9kbDAZUbSd0TIgW_3yyX-2" target="9kbDAZUbSd0TIgW_3yyX-4">
          <mxGeometry relative="1" as="geometry" />
        </mxCell>
        <mxCell id="9kbDAZUbSd0TIgW_3yyX-2" value="获取数据地址" style="rounded=0;whiteSpace=wrap;html=1;" vertex="1" parent="WIyWlLk6GJQsqaUBKTNV-1">
          <mxGeometry x="90" y="150" width="150" height="30" as="geometry" />
        </mxCell>
        <mxCell id="9kbDAZUbSd0TIgW_3yyX-8" value="" style="edgeStyle=orthogonalEdgeStyle;rounded=0;orthogonalLoop=1;jettySize=auto;html=1;" edge="1" parent="WIyWlLk6GJQsqaUBKTNV-1" source="9kbDAZUbSd0TIgW_3yyX-4" target="9kbDAZUbSd0TIgW_3yyX-7">
          <mxGeometry relative="1" as="geometry" />
        </mxCell>
        <mxCell id="9kbDAZUbSd0TIgW_3yyX-4" value="根据数据信息生成树控件" style="rounded=0;whiteSpace=wrap;html=1;" vertex="1" parent="WIyWlLk6GJQsqaUBKTNV-1">
          <mxGeometry x="90" y="250" width="150" height="30" as="geometry" />
        </mxCell>
        <mxCell id="9kbDAZUbSd0TIgW_3yyX-7" value="进入主循环" style="rounded=0;whiteSpace=wrap;html=1;" vertex="1" parent="WIyWlLk6GJQsqaUBKTNV-1">
          <mxGeometry x="90" y="350" width="150" height="30" as="geometry" />
        </mxCell>
        <mxCell id="9kbDAZUbSd0TIgW_3yyX-12" value="" style="edgeStyle=orthogonalEdgeStyle;rounded=0;orthogonalLoop=1;jettySize=auto;html=1;" edge="1" parent="WIyWlLk6GJQsqaUBKTNV-1" source="9kbDAZUbSd0TIgW_3yyX-9" target="9kbDAZUbSd0TIgW_3yyX-10">
          <mxGeometry relative="1" as="geometry" />
        </mxCell>
        <mxCell id="9kbDAZUbSd0TIgW_3yyX-9" value="树控件初始化完毕" style="rounded=1;whiteSpace=wrap;html=1;" vertex="1" parent="WIyWlLk6GJQsqaUBKTNV-1">
          <mxGeometry x="320" y="60" width="120" height="30" as="geometry" />
        </mxCell>
        <mxCell id="9kbDAZUbSd0TIgW_3yyX-13" value="" style="edgeStyle=orthogonalEdgeStyle;rounded=0;orthogonalLoop=1;jettySize=auto;html=1;" edge="1" parent="WIyWlLk6GJQsqaUBKTNV-1" source="9kbDAZUbSd0TIgW_3yyX-10" target="9kbDAZUbSd0TIgW_3yyX-11">
          <mxGeometry relative="1" as="geometry" />
        </mxCell>
        <mxCell id="9kbDAZUbSd0TIgW_3yyX-18" style="edgeStyle=orthogonalEdgeStyle;rounded=0;orthogonalLoop=1;jettySize=auto;html=1;exitX=0;exitY=0.5;exitDx=0;exitDy=0;" edge="1" parent="WIyWlLk6GJQsqaUBKTNV-1" source="9kbDAZUbSd0TIgW_3yyX-10">
          <mxGeometry relative="1" as="geometry">
            <mxPoint x="380" y="120" as="targetPoint" />
          </mxGeometry>
        </mxCell>
        <mxCell id="9kbDAZUbSd0TIgW_3yyX-10" value="监听点击事件" style="rhombus;whiteSpace=wrap;html=1;" vertex="1" parent="WIyWlLk6GJQsqaUBKTNV-1">
          <mxGeometry x="320" y="135" width="120" height="60" as="geometry" />
        </mxCell>
        <mxCell id="9kbDAZUbSd0TIgW_3yyX-26" value="" style="edgeStyle=orthogonalEdgeStyle;rounded=0;orthogonalLoop=1;jettySize=auto;html=1;" edge="1" parent="WIyWlLk6GJQsqaUBKTNV-1" source="9kbDAZUbSd0TIgW_3yyX-11" target="9kbDAZUbSd0TIgW_3yyX-24">
          <mxGeometry relative="1" as="geometry" />
        </mxCell>
        <mxCell id="9kbDAZUbSd0TIgW_3yyX-11" value="响应点击事件" style="rounded=0;whiteSpace=wrap;html=1;" vertex="1" parent="WIyWlLk6GJQsqaUBKTNV-1">
          <mxGeometry x="305" y="240" width="150" height="30" as="geometry" />
        </mxCell>
        <mxCell id="9kbDAZUbSd0TIgW_3yyX-14" value="Y" style="text;html=1;align=center;verticalAlign=middle;resizable=0;points=[];autosize=1;" vertex="1" parent="WIyWlLk6GJQsqaUBKTNV-1">
          <mxGeometry x="380" y="200" width="20" height="20" as="geometry" />
        </mxCell>
        <mxCell id="9kbDAZUbSd0TIgW_3yyX-19" value="N" style="text;html=1;align=center;verticalAlign=middle;resizable=0;points=[];autosize=1;" vertex="1" parent="WIyWlLk6GJQsqaUBKTNV-1">
          <mxGeometry x="310" y="140" width="20" height="20" as="geometry" />
        </mxCell>
        <mxCell id="9kbDAZUbSd0TIgW_3yyX-25" style="edgeStyle=orthogonalEdgeStyle;rounded=0;orthogonalLoop=1;jettySize=auto;html=1;exitX=1;exitY=0.5;exitDx=0;exitDy=0;entryX=1;entryY=0.5;entryDx=0;entryDy=0;" edge="1" parent="WIyWlLk6GJQsqaUBKTNV-1" source="9kbDAZUbSd0TIgW_3yyX-24" target="9kbDAZUbSd0TIgW_3yyX-10">
          <mxGeometry relative="1" as="geometry" />
        </mxCell>
        <mxCell id="9kbDAZUbSd0TIgW_3yyX-24" value="通知窗口绘制图表" style="rounded=0;whiteSpace=wrap;html=1;" vertex="1" parent="WIyWlLk6GJQsqaUBKTNV-1">
          <mxGeometry x="305" y="350" width="150" height="30" as="geometry" />
        </mxCell>
        <mxCell id="9kbDAZUbSd0TIgW_3yyX-30" value="" style="edgeStyle=orthogonalEdgeStyle;rounded=0;orthogonalLoop=1;jettySize=auto;html=1;" edge="1" parent="WIyWlLk6GJQsqaUBKTNV-1" source="9kbDAZUbSd0TIgW_3yyX-27" target="9kbDAZUbSd0TIgW_3yyX-29">
          <mxGeometry relative="1" as="geometry" />
        </mxCell>
        <mxCell id="9kbDAZUbSd0TIgW_3yyX-27" value="图表窗口初始化" style="rounded=1;whiteSpace=wrap;html=1;" vertex="1" parent="WIyWlLk6GJQsqaUBKTNV-1">
          <mxGeometry x="100" y="430" width="120" height="30" as="geometry" />
        </mxCell>
        <mxCell id="9kbDAZUbSd0TIgW_3yyX-39" style="edgeStyle=orthogonalEdgeStyle;rounded=0;orthogonalLoop=1;jettySize=auto;html=1;exitX=0;exitY=0.5;exitDx=0;exitDy=0;" edge="1" parent="WIyWlLk6GJQsqaUBKTNV-1" source="9kbDAZUbSd0TIgW_3yyX-29">
          <mxGeometry relative="1" as="geometry">
            <mxPoint x="160" y="500" as="targetPoint" />
          </mxGeometry>
        </mxCell>
        <mxCell id="9kbDAZUbSd0TIgW_3yyX-46" style="edgeStyle=orthogonalEdgeStyle;rounded=0;orthogonalLoop=1;jettySize=auto;html=1;exitX=0.5;exitY=1;exitDx=0;exitDy=0;entryX=0.5;entryY=0;entryDx=0;entryDy=0;" edge="1" parent="WIyWlLk6GJQsqaUBKTNV-1" source="9kbDAZUbSd0TIgW_3yyX-29" target="9kbDAZUbSd0TIgW_3yyX-42">
          <mxGeometry relative="1" as="geometry" />
        </mxCell>
        <mxCell id="9kbDAZUbSd0TIgW_3yyX-29" value="监听操作事件" style="rhombus;whiteSpace=wrap;html=1;" vertex="1" parent="WIyWlLk6GJQsqaUBKTNV-1">
          <mxGeometry x="100" y="520" width="120" height="60" as="geometry" />
        </mxCell>
        <mxCell id="9kbDAZUbSd0TIgW_3yyX-40" value="N" style="text;html=1;align=center;verticalAlign=middle;resizable=0;points=[];autosize=1;" vertex="1" parent="WIyWlLk6GJQsqaUBKTNV-1">
          <mxGeometry x="80" y="510" width="20" height="20" as="geometry" />
        </mxCell>
        <UserObject label="处理操作事件" link="data:image/png;base64,iVBORw0KGgoAAAANSUhEUgAAAAkAAAAJAQMAAADaX5RTAAAABlBMVEV7mr3///+wksspAAAAAnRSTlP/AOW3MEoAAAAdSURBVAgdY9jXwCDDwNDRwHCwgeExmASygSL7GgB12QiqNHZZIwAAAABJRU5ErkJggg==" id="9kbDAZUbSd0TIgW_3yyX-42">
          <mxCell style="swimlane;fontStyle=0;childLayout=stackLayout;horizontal=1;startSize=26;fillColor=none;horizontalStack=0;resizeParent=1;resizeParentMax=0;resizeLast=0;collapsible=1;marginBottom=0;" vertex="1" parent="WIyWlLk6GJQsqaUBKTNV-1">
            <mxGeometry x="90" y="620" width="140" height="130" as="geometry" />
          </mxCell>
        </UserObject>
        <mxCell id="9kbDAZUbSd0TIgW_3yyX-43" value="1.图表绘制事件" style="text;strokeColor=none;fillColor=none;align=left;verticalAlign=top;spacingLeft=4;spacingRight=4;overflow=hidden;rotatable=0;points=[[0,0.5],[1,0.5]];portConstraint=eastwest;" vertex="1" parent="9kbDAZUbSd0TIgW_3yyX-42">
          <mxGeometry y="26" width="140" height="26" as="geometry" />
        </mxCell>
        <mxCell id="9kbDAZUbSd0TIgW_3yyX-44" value="2.放大缩小事件" style="text;strokeColor=none;fillColor=none;align=left;verticalAlign=top;spacingLeft=4;spacingRight=4;overflow=hidden;rotatable=0;points=[[0,0.5],[1,0.5]];portConstraint=eastwest;" vertex="1" parent="9kbDAZUbSd0TIgW_3yyX-42">
          <mxGeometry y="52" width="140" height="26" as="geometry" />
        </mxCell>
        <mxCell id="9kbDAZUbSd0TIgW_3yyX-53" value="3.撤销恢复事件" style="text;strokeColor=none;fillColor=none;align=left;verticalAlign=top;spacingLeft=4;spacingRight=4;overflow=hidden;rotatable=0;points=[[0,0.5],[1,0.5]];portConstraint=eastwest;" vertex="1" parent="9kbDAZUbSd0TIgW_3yyX-42">
          <mxGeometry y="78" width="140" height="26" as="geometry" />
        </mxCell>
        <mxCell id="9kbDAZUbSd0TIgW_3yyX-47" value="4.界面重绘事件" style="text;strokeColor=none;fillColor=none;align=left;verticalAlign=top;spacingLeft=4;spacingRight=4;overflow=hidden;rotatable=0;points=[[0,0.5],[1,0.5]];portConstraint=eastwest;startSize=26;" vertex="1" parent="9kbDAZUbSd0TIgW_3yyX-42">
          <mxGeometry y="104" width="140" height="26" as="geometry" />
        </mxCell>
        <mxCell id="9kbDAZUbSd0TIgW_3yyX-62" style="edgeStyle=orthogonalEdgeStyle;rounded=0;orthogonalLoop=1;jettySize=auto;html=1;exitX=0.5;exitY=1;exitDx=0;exitDy=0;entryX=0;entryY=0.5;entryDx=0;entryDy=0;entryPerimeter=0;startSize=26;" edge="1" parent="WIyWlLk6GJQsqaUBKTNV-1" source="9kbDAZUbSd0TIgW_3yyX-49" target="9kbDAZUbSd0TIgW_3yyX-61">
          <mxGeometry relative="1" as="geometry" />
        </mxCell>
        <mxCell id="9kbDAZUbSd0TIgW_3yyX-49" value="响应撤销恢复" style="rounded=0;whiteSpace=wrap;html=1;" vertex="1" parent="WIyWlLk6GJQsqaUBKTNV-1">
          <mxGeometry x="20" y="800" width="100" height="30" as="geometry" />
        </mxCell>
        <mxCell id="9kbDAZUbSd0TIgW_3yyX-63" style="edgeStyle=orthogonalEdgeStyle;rounded=0;orthogonalLoop=1;jettySize=auto;html=1;exitX=0.5;exitY=1;exitDx=0;exitDy=0;entryX=0.25;entryY=0.5;entryDx=0;entryDy=0;entryPerimeter=0;startSize=26;" edge="1" parent="WIyWlLk6GJQsqaUBKTNV-1" source="9kbDAZUbSd0TIgW_3yyX-50" target="9kbDAZUbSd0TIgW_3yyX-61">
          <mxGeometry relative="1" as="geometry" />
        </mxCell>
        <mxCell id="9kbDAZUbSd0TIgW_3yyX-50" value="响应界面重绘" style="rounded=0;whiteSpace=wrap;html=1;" vertex="1" parent="WIyWlLk6GJQsqaUBKTNV-1">
          <mxGeometry x="200" y="800" width="100" height="30" as="geometry" />
        </mxCell>
        <mxCell id="9kbDAZUbSd0TIgW_3yyX-56" value="" style="edgeStyle=orthogonalEdgeStyle;rounded=0;orthogonalLoop=1;jettySize=auto;html=1;startSize=26;" edge="1" parent="WIyWlLk6GJQsqaUBKTNV-1" source="9kbDAZUbSd0TIgW_3yyX-54" target="9kbDAZUbSd0TIgW_3yyX-55">
          <mxGeometry relative="1" as="geometry" />
        </mxCell>
        <mxCell id="9kbDAZUbSd0TIgW_3yyX-54" value="生成工作线程任务" style="rounded=0;whiteSpace=wrap;html=1;" vertex="1" parent="WIyWlLk6GJQsqaUBKTNV-1">
          <mxGeometry x="310" y="800" width="100" height="30" as="geometry" />
        </mxCell>
        <mxCell id="9kbDAZUbSd0TIgW_3yyX-64" style="edgeStyle=orthogonalEdgeStyle;rounded=0;orthogonalLoop=1;jettySize=auto;html=1;exitX=0.5;exitY=1;exitDx=0;exitDy=0;entryX=0.75;entryY=0.5;entryDx=0;entryDy=0;entryPerimeter=0;startSize=26;" edge="1" parent="WIyWlLk6GJQsqaUBKTNV-1" source="9kbDAZUbSd0TIgW_3yyX-55" target="9kbDAZUbSd0TIgW_3yyX-61">
          <mxGeometry relative="1" as="geometry" />
        </mxCell>
        <mxCell id="9kbDAZUbSd0TIgW_3yyX-55" value="发送任务到工作线程" style="rounded=0;whiteSpace=wrap;html=1;" vertex="1" parent="WIyWlLk6GJQsqaUBKTNV-1">
          <mxGeometry x="300" y="890" width="120" height="30" as="geometry" />
        </mxCell>
        <mxCell id="9kbDAZUbSd0TIgW_3yyX-57" style="edgeStyle=orthogonalEdgeStyle;rounded=0;orthogonalLoop=1;jettySize=auto;html=1;exitX=1;exitY=0.5;exitDx=0;exitDy=0;entryX=0.5;entryY=0;entryDx=0;entryDy=0;startSize=26;" edge="1" parent="WIyWlLk6GJQsqaUBKTNV-1" source="9kbDAZUbSd0TIgW_3yyX-43" target="9kbDAZUbSd0TIgW_3yyX-54">
          <mxGeometry relative="1" as="geometry" />
        </mxCell>
        <mxCell id="9kbDAZUbSd0TIgW_3yyX-58" style="edgeStyle=orthogonalEdgeStyle;rounded=0;orthogonalLoop=1;jettySize=auto;html=1;entryX=0.5;entryY=0;entryDx=0;entryDy=0;startSize=26;" edge="1" parent="WIyWlLk6GJQsqaUBKTNV-1" source="9kbDAZUbSd0TIgW_3yyX-44" target="9kbDAZUbSd0TIgW_3yyX-54">
          <mxGeometry relative="1" as="geometry" />
        </mxCell>
        <mxCell id="9kbDAZUbSd0TIgW_3yyX-59" style="edgeStyle=orthogonalEdgeStyle;rounded=0;orthogonalLoop=1;jettySize=auto;html=1;exitX=0;exitY=0.5;exitDx=0;exitDy=0;entryX=0.5;entryY=0;entryDx=0;entryDy=0;startSize=26;" edge="1" parent="WIyWlLk6GJQsqaUBKTNV-1" source="9kbDAZUbSd0TIgW_3yyX-53" target="9kbDAZUbSd0TIgW_3yyX-49">
          <mxGeometry relative="1" as="geometry" />
        </mxCell>
        <mxCell id="9kbDAZUbSd0TIgW_3yyX-60" style="edgeStyle=orthogonalEdgeStyle;rounded=0;orthogonalLoop=1;jettySize=auto;html=1;exitX=1;exitY=0.5;exitDx=0;exitDy=0;entryX=0.5;entryY=0;entryDx=0;entryDy=0;startSize=26;" edge="1" parent="WIyWlLk6GJQsqaUBKTNV-1" source="9kbDAZUbSd0TIgW_3yyX-47" target="9kbDAZUbSd0TIgW_3yyX-50">
          <mxGeometry relative="1" as="geometry" />
        </mxCell>
        <mxCell id="9kbDAZUbSd0TIgW_3yyX-65" style="edgeStyle=orthogonalEdgeStyle;rounded=0;orthogonalLoop=1;jettySize=auto;html=1;exitX=1;exitY=0.5;exitDx=0;exitDy=0;exitPerimeter=0;entryX=1;entryY=0.5;entryDx=0;entryDy=0;startSize=26;" edge="1" parent="WIyWlLk6GJQsqaUBKTNV-1" source="9kbDAZUbSd0TIgW_3yyX-61" target="9kbDAZUbSd0TIgW_3yyX-29">
          <mxGeometry relative="1" as="geometry">
            <Array as="points">
              <mxPoint x="440" y="1045" />
              <mxPoint x="440" y="550" />
            </Array>
          </mxGeometry>
        </mxCell>
        <mxCell id="9kbDAZUbSd0TIgW_3yyX-61" value="" style="line;strokeWidth=2;html=1;fillColor=none;gradientColor=none;align=left;" vertex="1" parent="WIyWlLk6GJQsqaUBKTNV-1">
          <mxGeometry x="105" y="1040" width="160" height="10" as="geometry" />
        </mxCell>
        <mxCell id="9kbDAZUbSd0TIgW_3yyX-69" value="" style="edgeStyle=orthogonalEdgeStyle;rounded=0;orthogonalLoop=1;jettySize=auto;html=1;startSize=26;" edge="1" parent="WIyWlLk6GJQsqaUBKTNV-1" source="9kbDAZUbSd0TIgW_3yyX-66">
          <mxGeometry relative="1" as="geometry">
            <mxPoint x="670" y="500" as="targetPoint" />
          </mxGeometry>
        </mxCell>
        <mxCell id="9kbDAZUbSd0TIgW_3yyX-66" value="工作线程初始化" style="rounded=1;whiteSpace=wrap;html=1;" vertex="1" parent="WIyWlLk6GJQsqaUBKTNV-1">
          <mxGeometry x="610" y="430" width="120" height="30" as="geometry" />
        </mxCell>
        <mxCell id="9kbDAZUbSd0TIgW_3yyX-74" value="" style="edgeStyle=orthogonalEdgeStyle;rounded=0;orthogonalLoop=1;jettySize=auto;html=1;startSize=26;" edge="1" parent="WIyWlLk6GJQsqaUBKTNV-1" source="9kbDAZUbSd0TIgW_3yyX-72" target="9kbDAZUbSd0TIgW_3yyX-73">
          <mxGeometry relative="1" as="geometry" />
        </mxCell>
        <mxCell id="9kbDAZUbSd0TIgW_3yyX-80" style="edgeStyle=orthogonalEdgeStyle;rounded=0;orthogonalLoop=1;jettySize=auto;html=1;exitX=0;exitY=0.5;exitDx=0;exitDy=0;entryX=0.5;entryY=0;entryDx=0;entryDy=0;startSize=26;" edge="1" parent="WIyWlLk6GJQsqaUBKTNV-1" source="9kbDAZUbSd0TIgW_3yyX-72" target="9kbDAZUbSd0TIgW_3yyX-79">
          <mxGeometry relative="1" as="geometry" />
        </mxCell>
        <mxCell id="9kbDAZUbSd0TIgW_3yyX-72" value="获取一个任务" style="rhombus;whiteSpace=wrap;html=1;" vertex="1" parent="WIyWlLk6GJQsqaUBKTNV-1">
          <mxGeometry x="610" y="500" width="120" height="60" as="geometry" />
        </mxCell>
        <mxCell id="9kbDAZUbSd0TIgW_3yyX-76" value="" style="edgeStyle=orthogonalEdgeStyle;rounded=0;orthogonalLoop=1;jettySize=auto;html=1;startSize=26;" edge="1" parent="WIyWlLk6GJQsqaUBKTNV-1" source="9kbDAZUbSd0TIgW_3yyX-73" target="9kbDAZUbSd0TIgW_3yyX-75">
          <mxGeometry relative="1" as="geometry" />
        </mxCell>
        <mxCell id="9kbDAZUbSd0TIgW_3yyX-73" value="执行一个任务" style="rounded=0;whiteSpace=wrap;html=1;" vertex="1" parent="WIyWlLk6GJQsqaUBKTNV-1">
          <mxGeometry x="620" y="600" width="100" height="30" as="geometry" />
        </mxCell>
        <mxCell id="9kbDAZUbSd0TIgW_3yyX-78" value="" style="edgeStyle=orthogonalEdgeStyle;rounded=0;orthogonalLoop=1;jettySize=auto;html=1;startSize=26;" edge="1" parent="WIyWlLk6GJQsqaUBKTNV-1" source="9kbDAZUbSd0TIgW_3yyX-75" target="9kbDAZUbSd0TIgW_3yyX-77">
          <mxGeometry relative="1" as="geometry" />
        </mxCell>
        <mxCell id="9kbDAZUbSd0TIgW_3yyX-75" value="执行一个任务" style="rounded=0;whiteSpace=wrap;html=1;" vertex="1" parent="WIyWlLk6GJQsqaUBKTNV-1">
          <mxGeometry x="620" y="670" width="100" height="30" as="geometry" />
        </mxCell>
        <mxCell id="9kbDAZUbSd0TIgW_3yyX-83" style="edgeStyle=orthogonalEdgeStyle;rounded=0;orthogonalLoop=1;jettySize=auto;html=1;entryX=1;entryY=0.5;entryDx=0;entryDy=0;startSize=26;" edge="1" parent="WIyWlLk6GJQsqaUBKTNV-1" source="9kbDAZUbSd0TIgW_3yyX-77" target="9kbDAZUbSd0TIgW_3yyX-72">
          <mxGeometry relative="1" as="geometry">
            <Array as="points">
              <mxPoint x="750" y="755" />
              <mxPoint x="750" y="530" />
            </Array>
          </mxGeometry>
        </mxCell>
        <mxCell id="9kbDAZUbSd0TIgW_3yyX-77" value="发出任务完成信号" style="rounded=0;whiteSpace=wrap;html=1;" vertex="1" parent="WIyWlLk6GJQsqaUBKTNV-1">
          <mxGeometry x="620" y="740" width="100" height="30" as="geometry" />
        </mxCell>
        <mxCell id="9kbDAZUbSd0TIgW_3yyX-79" value="线程退出" style="rounded=0;whiteSpace=wrap;html=1;" vertex="1" parent="WIyWlLk6GJQsqaUBKTNV-1">
          <mxGeometry x="500" y="600" width="100" height="30" as="geometry" />
        </mxCell>
        <mxCell id="9kbDAZUbSd0TIgW_3yyX-81" value="Y" style="text;html=1;align=center;verticalAlign=middle;resizable=0;points=[];autosize=1;" vertex="1" parent="WIyWlLk6GJQsqaUBKTNV-1">
          <mxGeometry x="670" y="560" width="20" height="20" as="geometry" />
        </mxCell>
        <mxCell id="9kbDAZUbSd0TIgW_3yyX-82" value="N" style="text;html=1;align=center;verticalAlign=middle;resizable=0;points=[];autosize=1;" vertex="1" parent="WIyWlLk6GJQsqaUBKTNV-1">
          <mxGeometry x="580" y="510" width="20" height="20" as="geometry" />
        </mxCell>
      </root>
    </mxGraphModel>
  </diagram>
</mxfile>
